<?xml version="1.0" encoding="utf-8"?><svg viewBox="0 0 376 21" xmlns="http://www.w3.org/2000/svg" xmlns:xlink="http://www.w3.org/1999/xlink"><style>:root>svg{display:none}:root>svg:target{display:block}</style><svg fill="none" viewBox="0 0 376 21" id="logo" xmlns="http://www.w3.org/2000/svg"><path d="M5.758 10.784v5.894c0 1.273.141 2.056.418 2.357a2.156 2.156 0 0 0 1.72.654h.779v.56H0v-.56h.766a2.039 2.039 0 0 0 1.833-.83 4.98 4.98 0 0 0 .3-2.193V3.606c0-1.266-.135-2.062-.412-2.357A2.175 2.175 0 0 0 .767.595H0V.047h7.42a13.113 13.113 0 0 1 4.284.554 6.082 6.082 0 0 1 2.64 1.886 4.885 4.885 0 0 1 1.067 3.153 5.305 5.305 0 0 1-1.627 4.025c-1.09 1.031-2.634 1.55-4.62 1.55a13.851 13.851 0 0 1-1.58-.1c-.589-.071-1.178-.171-1.826-.313m0-.854c.53.094.996.182 1.408.23.346.043.695.066 1.043.07a3.536 3.536 0 0 0 2.676-1.178 4.373 4.373 0 0 0 1.131-3.112 5.646 5.646 0 0 0-.542-2.446 3.753 3.753 0 0 0-1.52-1.685 4.52 4.52 0 0 0-2.24-.554c-.66.023-1.317.12-1.956.289v8.386ZM36.42 9.411h9.4V3.624a6.704 6.704 0 0 0-.195-2.045A1.302 1.302 0 0 0 45 .937a2.776 2.776 0 0 0-1.355-.36h-.719V.03h8.657v.548h-.713c-.48.006-.95.134-1.367.372a1.26 1.26 0 0 0-.648.725 7.256 7.256 0 0 0-.177 1.98v13.053c-.036.682.03 1.365.194 2.027.127.279.346.505.62.643.419.234.892.356 1.372.353h.713v.56h-8.651v-.56h.719a2.169 2.169 0 0 0 1.81-.73c.24-.313.365-1.079.365-2.293V10.52h-9.4v6.159a6.423 6.423 0 0 0 .2 2.027c.124.282.346.51.625.642.413.236.88.358 1.355.354h.731v.56h-8.687v-.56h.72a2.17 2.17 0 0 0 1.82-.73c.236-.313.36-1.08.36-2.293V3.624a6.48 6.48 0 0 0-.2-2.045 1.314 1.314 0 0 0-.59-.642 2.876 2.876 0 0 0-1.373-.36h-.736V.03h8.668v.548H38.6a2.806 2.806 0 0 0-1.355.342c-.3.15-.53.41-.642.725a6.944 6.944 0 0 0-.183 1.98v5.787ZM76.43 19.7v.56h-8.657v-.56h.72a2.169 2.169 0 0 0 1.815-.73c.235-.312.353-1.078.353-2.292V3.606a6.48 6.48 0 0 0-.194-2.027 1.326 1.326 0 0 0-.59-.642 2.893 2.893 0 0 0-1.373-.36h-.73V.03h8.668v.548h-.73a2.104 2.104 0 0 0-1.804.737c-.259.312-.377 1.078-.377 2.292v13.072c-.04.681.026 1.365.195 2.027.127.28.348.507.624.642a2.7 2.7 0 0 0 1.362.354h.719ZM109.478 14.662l.489.106-1.727 5.493H92.57v-.56h.76a2.022 2.022 0 0 0 1.833-.831c.218-.324.319-1.055.319-2.21V3.606c0-1.26-.136-2.056-.413-2.357A2.223 2.223 0 0 0 93.33.595h-.76V.047h9.164v.548a5.585 5.585 0 0 0-2.263.3 1.797 1.797 0 0 0-.89.79 6.528 6.528 0 0 0-.235 2.28v12.713c-.04.578.04 1.157.235 1.703.125.212.322.373.554.453.767.15 1.549.2 2.328.154h1.479c1.1.055 2.201-.06 3.265-.342a4.122 4.122 0 0 0 1.721-1.22 10.052 10.052 0 0 0 1.55-2.746M133.712 19.7v.56h-8.669v-.56h.713a2.169 2.169 0 0 0 1.821-.73c.236-.312.354-1.078.354-2.292V3.606a6.718 6.718 0 0 0-.189-2.027 1.324 1.324 0 0 0-.589-.642 2.843 2.843 0 0 0-1.373-.36h-.713V.03h8.668v.548h-.73a2.123 2.123 0 0 0-1.809.737c-.248.312-.372 1.078-.372 2.292v13.072a6.688 6.688 0 0 0 .195 2.027c.128.28.348.507.624.642a2.72 2.72 0 0 0 1.362.354h.707ZM155.512 10.785v5.893c0 1.273.135 2.057.418 2.357a2.135 2.135 0 0 0 1.715.655h.772v.56h-8.663v-.56h.76a2.052 2.052 0 0 0 1.839-.831c.257-.7.356-1.45.289-2.193V3.607c0-1.267-.13-2.063-.401-2.357a2.18 2.18 0 0 0-1.727-.654h-.76V.047h7.414a12.997 12.997 0 0 1 4.278.554 6.03 6.03 0 0 1 2.646 1.886 4.858 4.858 0 0 1 1.073 3.153 5.3 5.3 0 0 1-1.633 4.025c-1.09 1.032-2.634 1.55-4.614 1.55a13.924 13.924 0 0 1-1.585-.1c-.59-.07-1.179-.171-1.821-.312m0-.855c.524.094.996.183 1.402.23a9.29 9.29 0 0 0 1.043.07 3.54 3.54 0 0 0 2.676-1.178 4.364 4.364 0 0 0 1.125-3.112 5.63 5.63 0 0 0-.53-2.445 3.79 3.79 0 0 0-1.52-1.686 4.564 4.564 0 0 0-2.246-.554 8.923 8.923 0 0 0-1.95.289v8.386ZM186.154 10.785v5.893c0 1.273.142 2.057.419 2.357a2.136 2.136 0 0 0 1.714.654h.778v.56h-8.663v-.56h.755a2.049 2.049 0 0 0 1.838-.83c.261-.7.361-1.45.295-2.193V3.606c0-1.266-.13-2.062-.401-2.356a2.204 2.204 0 0 0-1.732-.655h-.755V.047h7.408a13.065 13.065 0 0 1 4.285.554 6.015 6.015 0 0 1 2.64 1.886 4.866 4.866 0 0 1 1.078 3.153 5.295 5.295 0 0 1-1.638 4.025c-1.092 1.033-2.631 1.55-4.615 1.55a14.054 14.054 0 0 1-1.585-.1c-.589-.07-1.178-.171-1.821-.313m0-.854c.531.094.996.183 1.403.23.348.043.698.066 1.049.07a3.537 3.537 0 0 0 2.669-1.178 4.32 4.32 0 0 0 1.138-3.112 5.664 5.664 0 0 0-.542-2.445 3.73 3.73 0 0 0-1.521-1.686 4.514 4.514 0 0 0-2.233-.554 8.937 8.937 0 0 0-1.963.289v8.386ZM239.264 10.785v5.893c0 1.273.135 2.057.418 2.357a2.142 2.142 0 0 0 1.715.655h.778v.56h-8.698v-.56h.76a2.032 2.032 0 0 0 1.833-.831 4.977 4.977 0 0 0 .3-2.193V3.607c0-1.267-.135-2.063-.406-2.357a2.21 2.21 0 0 0-1.727-.654h-.76V.047h7.407a13.042 13.042 0 0 1 4.285.554 5.984 5.984 0 0 1 2.64 1.886 4.855 4.855 0 0 1 1.078 3.153 5.295 5.295 0 0 1-1.638 4.025c-1.09 1.031-2.622 1.55-4.614 1.55a13.86 13.86 0 0 1-1.58-.1c-.589-.07-1.178-.171-1.821-.312m0-.855c.525.094.996.183 1.403.23.346.043.694.067 1.043.07a3.57 3.57 0 0 0 2.675-1.178 4.34 4.34 0 0 0 1.126-3.112 5.63 5.63 0 0 0-.53-2.445 3.763 3.763 0 0 0-1.527-1.686 4.511 4.511 0 0 0-2.233-.554 8.835 8.835 0 0 0-1.927.265l-.03 8.41ZM281.136 14.662l.483.106-1.726 5.493h-15.67v-.56h.766a2.03 2.03 0 0 0 1.833-.831c.218-.324.312-1.055.312-2.21V3.606c0-1.26-.136-2.056-.413-2.357a2.187 2.187 0 0 0-1.732-.654h-.766V.047h9.164v.548a5.573 5.573 0 0 0-2.257.3 1.766 1.766 0 0 0-.89.79 6.462 6.462 0 0 0-.242 2.28v12.713c-.04.578.042 1.158.242 1.703a.994.994 0 0 0 .554.453 9.23 9.23 0 0 0 2.357.154h1.473c1.1.055 2.201-.06 3.265-.342a4.164 4.164 0 0 0 1.715-1.22 10.058 10.058 0 0 0 1.556-2.746M302.324 1.125v7.998h4.444c1.178 0 1.927-.165 2.316-.52.518-.453.801-1.266.86-2.415h.554v7.036h-.554a7.302 7.302 0 0 0-.418-1.886 1.772 1.772 0 0 0-.878-.819 4.264 4.264 0 0 0-1.88-.306h-4.444v6.647a6.09 6.09 0 0 0 .118 1.639c.081.199.229.364.418.465.36.141.747.2 1.132.171h3.436a9.268 9.268 0 0 0 2.487-.236 3.683 3.683 0 0 0 1.491-.948 11.406 11.406 0 0 0 1.897-2.782h.59l-1.768 5.074h-15.559v-.56h.714a2.83 2.83 0 0 0 1.361-.342 1.25 1.25 0 0 0 .642-.719 6.774 6.774 0 0 0 .177-1.95V3.53c0-1.285-.13-2.075-.389-2.357a2.32 2.32 0 0 0-1.768-.59h-.713V.035h15.588l.224 4.426h-.59a6.565 6.565 0 0 0-.695-2.192 2.36 2.36 0 0 0-1.12-.914 6.888 6.888 0 0 0-2.11-.224l-5.563-.006ZM338.819 19.7v.56h-8.674v-.56h.718a2.169 2.169 0 0 0 1.822-.73c.235-.312.359-1.078.359-2.292V3.606a6.655 6.655 0 0 0-.194-2.027 1.331 1.331 0 0 0-.59-.642 2.856 2.856 0 0 0-1.373-.36h-.719V.03h8.675v.548h-.731a2.135 2.135 0 0 0-1.809.737c-.242.312-.371 1.078-.371 2.292v13.072a6.471 6.471 0 0 0 .194 2.027c.126.281.347.509.625.642.414.236.884.358 1.361.354h.707ZM353.949.03h5.493l12.376 15.163V3.53c0-1.238-.142-2.015-.419-2.357a2.214 2.214 0 0 0-1.768-.625h-.701V0h7.072v.548h-.719a2.06 2.06 0 0 0-1.821.772 4.545 4.545 0 0 0-.33 2.18v17.05h-.537L359.259 4.26v12.46c0 1.248.136 2.02.401 2.356a2.24 2.24 0 0 0 1.768.625h.713v.56h-7.072v-.56h.701a2.082 2.082 0 0 0 1.833-.766c.287-.691.4-1.442.33-2.186V2.676a9.414 9.414 0 0 0-1.332-1.35 4.395 4.395 0 0 0-2.652-.748V.029Z" fill="#000"/></svg></svg>